# xmcd CD database file
#
# Track frame offsets:
#	150
#	14662
#	28768
#	43301
#	58667
#	74350
#	90543
#	106299
#	122075
#	133189
#	144657
#	160235
#
# Disc length: 2292 seconds
#
# Revision: 0
# Processed by: cddbd v1.5.1PL2 Copyright (c) Steve Scherf et al.
# Submitted via: CDex 1.51
#
DISCID=b108f20c
DTITLE=Manitoba Hal - Resonator
DYEAR=2005
DGENRE=Blues
TTITLE0=Poulet Shack
TTITLE1=Cut Deep
TTITLE2=Thirty Odd Days
TTITLE3=We Lose It All
TTITLE4=The Better Man
TTITLE5=Saint Peter
TTITLE6=Cost Of The Blues
TTITLE7=Atlanta Moan
TTITLE8=This Condition
TTITLE9=Wake Up Jake
TTITLE10=Bonedigger
TTITLE11=Paradise
EXTD=YEAR: 2005
EXTT0=
EXTT1=
EXTT2=
EXTT3=
EXTT4=
EXTT5=
EXTT6=
EXTT7=
EXTT8=
EXTT9=
EXTT10=
EXTT11=
PLAYORDER=
